<svg width="35" height="35" viewBox="0 0 35 35" fill="none" xmlns="http://www.w3.org/2000/svg">
<path d="M21.3795 12.0729V5.87186H19.8318V32.244H21.3795V13.6308H30.6861V4.31396H29.1384V12.0729H21.3795Z" fill="#930F4D"/>
<path d="M27.5907 2.76611H29.1384V4.31382H27.5907V2.76611Z" fill="#930F4D"/>
<path d="M21.3795 4.31396H22.9272V5.87186H21.3795V4.31396Z" fill="#930F4D"/>
<path d="M18.2739 32.2439H19.8318V33.7916H18.2739V32.2439Z" fill="#930F4D"/>
<path d="M16.7262 30.6963H18.2739V32.244H16.7262V30.6963Z" fill="#930F4D"/>
<path d="M15.1785 29.1382H16.7262V30.6961H15.1785V29.1382Z" fill="#930F4D"/>
<path d="M16.7262 10.5251H13.6206V12.0729H12.0729V10.5251H8.96726V12.0729H7.41956V15.1785H8.96726V16.7262H10.515V18.2841H12.0729V19.8318H13.6206V18.2841H15.1785V16.7262H16.7262V15.1785H18.2739V12.0729H16.7262V10.5251Z" fill="#930F4D"/>
<path d="M13.6206 27.5906H15.1785V29.1383H13.6206V27.5906Z" fill="#930F4D"/>
<path d="M12.0729 26.043H13.6206V27.5907H12.0729V26.043Z" fill="#930F4D"/>
<path d="M10.515 27.5906H12.0729V29.1383H10.515V27.5906Z" fill="#930F4D"/>
<path d="M8.96729 2.76614H22.9272V4.31385H24.4851V2.76614H27.5907V1.20825L8.96729 1.20825V2.76614Z" fill="#930F4D"/>
<path d="M8.96729 29.1382H10.515V30.6961H8.96729V29.1382Z" fill="#930F4D"/>
<path d="M7.41956 30.6963H8.96726V32.244H7.41956V30.6963Z" fill="#930F4D"/>
<path d="M7.41956 2.76611H8.96726V4.31382H7.41956V2.76611Z" fill="#930F4D"/>
<path d="M5.86169 32.2439H7.41959V33.7916H5.86169V32.2439Z" fill="#930F4D"/>
<path d="M5.86169 4.31396H7.41959V5.87186H5.86169V4.31396Z" fill="#930F4D"/>
<path d="M4.31396 5.87183H5.86167V32.244H4.31396V5.87183Z" fill="#930F4D"/>
</svg>
