<svg width="54" height="54" viewBox="0 0 54 54" fill="none" xmlns="http://www.w3.org/2000/svg">
<path d="M50.4008 39.323H52.8751V46.7135H50.4008V39.323Z" fill="#9A86A9"/>
<path d="M50.4008 22.0676H52.8751V31.9324H50.4008V22.0676Z" fill="#9A86A9"/>
<path d="M50.4008 7.28648H52.8751V14.677H50.4008V7.28648Z" fill="#9A86A9"/>
<path d="M47.9426 46.7135H50.4008V49.1716H47.9426V46.7135Z" fill="#9A86A9"/>
<path d="M47.9426 4.81219H50.4008V7.28648H47.9426V4.81219Z" fill="#9A86A9"/>
<path d="M40.552 2.35406H47.9425V4.81219H40.552V2.35406Z" fill="#9A86A9"/>
<path d="M40.552 49.1716H47.9425V51.6459H40.552V49.1716Z" fill="#9A86A9"/>
<path d="M35.6196 34.3905H38.0778V36.8487H35.6196V34.3905Z" fill="#9A86A9"/>
<path d="M35.6196 14.677H38.0778V19.6095H35.6196V14.677Z" fill="#9A86A9"/>
<path d="M33.1615 36.8487H35.6196V39.323H33.1615V36.8487Z" fill="#9A86A9"/>
<path d="M30.6871 27H33.1614V29.4581H30.6871V27Z" fill="#9A86A9"/>
<path d="M20.8385 49.1716H33.1615V51.6459H20.8385V49.1716Z" fill="#9A86A9"/>
<path d="M20.8385 39.323H33.1615V41.7811H20.8385V39.323Z" fill="#9A86A9"/>
<path d="M28.229 24.5257H30.6871V27H28.229V24.5257Z" fill="#9A86A9"/>
<path d="M25.771 29.4581H30.6872V31.9324H25.771V29.4581Z" fill="#9A86A9"/>
<path d="M25.771 17.1352H28.2291V24.5257H25.771V17.1352Z" fill="#9A86A9"/>
<path d="M20.8385 2.35406H33.1615V4.81219H20.8385V2.35406Z" fill="#9A86A9"/>
<path d="M18.3643 36.8487H20.8386V39.323H18.3643V36.8487Z" fill="#9A86A9"/>
<path d="M15.9061 34.3905H18.3643V36.8487H15.9061V34.3905Z" fill="#9A86A9"/>
<path d="M15.9061 14.677H18.3643V19.6095H15.9061V14.677Z" fill="#9A86A9"/>
<path d="M6.05737 49.1716H13.4479V51.6459H6.05737V49.1716Z" fill="#9A86A9"/>
<path d="M6.05737 2.35406H13.4479V4.81219H6.05737V2.35406Z" fill="#9A86A9"/>
<path d="M3.58313 46.7135H6.05743V49.1716H3.58313V46.7135Z" fill="#9A86A9"/>
<path d="M3.58313 4.81219H6.05743V7.28648H3.58313V4.81219Z" fill="#9A86A9"/>
<path d="M1.125 39.323H3.58312V46.7135H1.125V39.323Z" fill="#9A86A9"/>
<path d="M1.125 22.0676H3.58312V31.9324H1.125V22.0676Z" fill="#9A86A9"/>
<path d="M1.125 7.28648H3.58312V14.677H1.125V7.28648Z" fill="#9A86A9"/>
</svg>
