<svg width="34" height="33" viewBox="0 0 34 33" fill="none" xmlns="http://www.w3.org/2000/svg">
<path d="M31.744 12.6204H33.2917V20.3793H31.744V12.6204Z" fill="#930F4D"/>
<path d="M30.1963 20.3794H31.744V23.485H30.1963V20.3794Z" fill="#930F4D"/>
<path d="M30.1963 9.52515H31.744V12.6206H30.1963V9.52515Z" fill="#930F4D"/>
<path d="M28.6384 23.4849H30.1963V26.5905H28.6384V23.4849Z" fill="#930F4D"/>
<path d="M28.6384 6.41943H30.1963V9.52503H28.6384V6.41943Z" fill="#930F4D"/>
<path d="M27.0907 26.5906H28.6384V28.1383H27.0907V26.5906Z" fill="#930F4D"/>
<path d="M28.6384 15.7261H27.0907V17.284H25.543V18.8317H27.0907V20.3794H28.6384V18.8317H30.1963V17.284H28.6384V15.7261Z" fill="#930F4D"/>
<path d="M27.0907 4.87183H28.6384V6.41953H27.0907V4.87183Z" fill="#930F4D"/>
<path d="M25.543 11.0728H27.0907V12.6205H25.543V11.0728Z" fill="#930F4D"/>
<path d="M23.9851 28.1382H27.0907V29.6961H23.9851V28.1382Z" fill="#930F4D"/>
<path d="M23.9851 21.9373H25.543V23.485H23.9851V21.9373Z" fill="#930F4D"/>
<path d="M23.9851 3.31396H27.0907V4.87186H23.9851V3.31396Z" fill="#930F4D"/>
<path d="M22.4374 6.41943H23.9851V7.96714H22.4374V6.41943Z" fill="#930F4D"/>
<path d="M20.8795 29.6963H23.9851V31.244H20.8795V29.6963Z" fill="#930F4D"/>
<path d="M20.8795 1.76611H23.9851V3.31382H20.8795V1.76611Z" fill="#930F4D"/>
<path d="M20.8795 20.3794H19.3318V21.9373H17.7841V23.485H19.3318V25.0327H20.8795V23.485H22.4374V21.9373H20.8795V20.3794Z" fill="#930F4D"/>
<path d="M13.1307 31.2439H20.8795V32.7916H13.1307V31.2439Z" fill="#930F4D"/>
<path d="M14.6785 20.3794H16.2262V21.9373H14.6785V20.3794Z" fill="#930F4D"/>
<path d="M14.6784 18.8318H16.2262V20.3795H17.784V18.8318H19.3318V17.2841H20.8795V15.7262H22.4374V14.1785H23.9851V12.6206H22.4374V11.0729H20.8795V9.52515H19.3318V11.0729H17.784V12.6206H16.2262V14.1785H14.6784V15.7262H13.1307V17.2841H14.6784V18.8318Z" fill="#930F4D"/>
<path d="M16.2262 3.31396H14.6784V4.87186H13.1307V6.41956H14.6784V7.96727H16.2262V6.41956H17.784V4.87186H16.2262V3.31396Z" fill="#930F4D"/>
<path d="M13.1307 0.208252H20.8795V1.76614H13.1307V0.208252Z" fill="#930F4D"/>
<path d="M13.1307 21.9373H14.6784V23.485H13.1307V21.9373Z" fill="#930F4D"/>
<path d="M10.0251 29.6963H13.1307V31.244H10.0251V29.6963Z" fill="#930F4D"/>
<path d="M11.5729 23.4849H13.1308V25.0326H11.5729V23.4849Z" fill="#930F4D"/>
<path d="M11.5729 17.2839H13.1308V18.8316H11.5729V17.2839Z" fill="#930F4D"/>
<path d="M11.5729 9.52515H13.1308V11.0729H11.5729V9.52515Z" fill="#930F4D"/>
<path d="M10.0251 1.76611H13.1307V3.31382H10.0251V1.76611Z" fill="#930F4D"/>
<path d="M10.0251 25.0327H11.5729V26.5906H10.0251V25.0327Z" fill="#930F4D"/>
<path d="M10.0251 18.8315H11.5729V20.3793H10.0251V18.8315Z" fill="#930F4D"/>
<path d="M8.46726 26.5906V28.1383H6.91956V29.6962H10.0252V26.5906H8.46726Z" fill="#930F4D"/>
<path d="M8.46729 20.3794H10.0252V21.9373H8.46729V20.3794Z" fill="#930F4D"/>
<path d="M6.91956 3.31396H10.0252V4.87186H6.91956V3.31396Z" fill="#930F4D"/>
<path d="M6.91956 21.9373H8.46726V23.485H6.91956V21.9373Z" fill="#930F4D"/>
<path d="M8.46724 9.52515H6.91953V11.0729H5.37183V12.6206H6.91953V14.1785H8.46724V12.6206H10.0251V11.0729H8.46724V9.52515Z" fill="#930F4D"/>
<path d="M5.37183 26.5906H6.91953V28.1383H5.37183V26.5906Z" fill="#930F4D"/>
<path d="M6.91956 25.0326V23.4849H3.81396V26.5905H5.37186V25.0326H6.91956Z" fill="#930F4D"/>
<path d="M5.37183 4.87183H6.91953V6.41953H5.37183V4.87183Z" fill="#930F4D"/>
<path d="M3.81396 6.41943H5.37186V9.52503H3.81396V6.41943Z" fill="#930F4D"/>
<path d="M2.26624 20.3794H3.81394V23.485H2.26624V20.3794Z" fill="#930F4D"/>
<path d="M2.26624 9.52515H3.81394V12.6206H2.26624V9.52515Z" fill="#930F4D"/>
<path d="M0.708374 12.6204H2.26626V20.3793H0.708374V12.6204Z" fill="#930F4D"/>
</svg>
