<svg width="34" height="33" viewBox="0 0 34 33" fill="none" xmlns="http://www.w3.org/2000/svg">
<path d="M31.7336 6.41949H33.2915V32.7916H31.7336V6.41949Z" fill="#930F4D"/>
<path d="M30.186 4.86163H31.7337V6.41952H30.186V4.86163Z" fill="#930F4D"/>
<path d="M28.6282 3.3139H30.1861V4.86161H28.6282V3.3139Z" fill="#930F4D"/>
<path d="M27.0803 1.75604H28.628V3.31393H27.0803V1.75604Z" fill="#930F4D"/>
<path d="M3.80357 0.208313V6.41951H5.36146V7.96722H6.90917V21.9271H5.36146V23.485H3.80357V25.0327H2.25586V26.5805H22.427V32.7916H23.9747V25.0327H25.5326V23.485H27.0803V21.9271H28.628V7.96722H27.0803V6.41951H25.5326V1.75602H27.0803V0.208313H3.80357ZM11.5625 1.75602H23.9747V4.86162H11.5625V1.75602ZM8.45688 1.75602H10.0148V4.86162H8.45688V1.75602ZM5.36146 4.86162V1.75602H6.90917V4.86162H5.36146ZM10.0148 23.485H8.45688V25.0327H6.90917V23.485H8.45688V21.9271H10.0148V23.485ZM14.6681 23.485H13.1204V25.0327H11.5625V23.485H13.1204V21.9271H14.6681V23.485ZM22.427 25.0327H17.7737V23.485H22.427V25.0327ZM23.9747 20.3794H11.5625V11.0728H23.9747V20.3794ZM25.5326 9.51493H8.45688V7.96722H25.5326V9.51493Z" fill="#930F4D"/>
<path d="M20.8691 15.7261H22.427V17.2738H20.8691V15.7261Z" fill="#930F4D"/>
<path d="M19.3215 12.6205H20.8692V14.1682H19.3215V12.6205Z" fill="#930F4D"/>
<path d="M20.8691 32.7916V29.686H16.2158V32.7916H17.7737V31.2439H19.3214V32.7916H20.8691Z" fill="#930F4D"/>
<path d="M14.6682 17.2738H20.8692V18.8317H14.6682V17.2738Z" fill="#930F4D"/>
<path d="M14.6682 12.6205H16.2159V14.1682H14.6682V12.6205Z" fill="#930F4D"/>
<path d="M13.1204 15.7261H14.6681V17.2738H13.1204V15.7261Z" fill="#930F4D"/>
<path d="M0.708252 26.5804H2.25596V32.7916H0.708252V26.5804Z" fill="#930F4D"/>
</svg>
