<svg width="34" height="35" viewBox="0 0 34 35" fill="none" xmlns="http://www.w3.org/2000/svg">
<path d="M31.7389 27.5805H30.1912V32.2338H28.6435V29.1384H27.0856V33.7917H31.7389V27.5805Z" fill="#6B577B"/>
<path d="M28.6434 21.3795H30.1911V27.5805H28.6434V21.3795Z" fill="#6B577B"/>
<path d="M25.5378 24.4749H27.0856V29.1384H25.5378V24.4749Z" fill="#6B577B"/>
<path d="M25.5378 18.2739H27.0855V21.3795H28.6434V16.7262H27.0855V8.96725H28.6434V2.75605H17.7789V1.20834H16.2312V2.75605H5.36671V8.96725H6.91951V4.31394H23.9952V8.96725H22.4373V16.7262H20.8896V22.9272H3.819V16.7262H2.26111V24.4749H5.36671V29.1384H6.91951V24.4749H8.4774V29.1384H6.91951V32.2338H5.36671V29.1384H3.819V33.7917H8.47231V30.6861H17.7789V33.7917H22.4322V29.1384H20.8845V32.2338H19.3266V29.1384H10.02V27.5805H19.3266V29.1384H20.8845V24.4749H22.4322V29.1384H23.9901V24.4749H25.5378V18.2739ZM19.3266 26.0328H10.02V24.4749H19.3266V26.0328Z" fill="#6B577B"/>
<path d="M19.3267 12.0627H20.8846V15.1683H19.3267V12.0627Z" fill="#6B577B"/>
<path d="M17.7789 15.1683H19.3266V18.2739H17.7789V15.1683Z" fill="#6B577B"/>
<path d="M17.7789 10.515H19.3266V12.0627H17.7789V10.515Z" fill="#6B577B"/>
<path d="M17.7789 5.86166H19.3266V7.40937H17.7789V5.86166Z" fill="#6B577B"/>
<path d="M10.02 18.2739H17.7789V19.8216H10.02V18.2739Z" fill="#6B577B"/>
<path d="M14.6733 12.0627H16.2312V13.6205H14.6733V12.0627Z" fill="#6B577B"/>
<path d="M13.1256 15.1683H14.6733V16.7262H13.1256V15.1683Z" fill="#6B577B"/>
<path d="M10.02 12.0627H11.5779V13.6205H10.02V12.0627Z" fill="#6B577B"/>
<path d="M17.7789 10.515V7.40937H16.2312V8.96726H14.6733V5.86166H13.1256V8.96726H11.5779V7.40937H10.02V8.96726H8.47229V10.515H17.7789Z" fill="#6B577B"/>
<path d="M8.47229 15.1683H10.02V18.2739H8.47229V15.1683Z" fill="#6B577B"/>
<path d="M8.47229 5.86166H10.02V7.40937H8.47229V5.86166Z" fill="#6B577B"/>
<path d="M6.91443 10.515H8.47232V15.1683H6.91443V10.515Z" fill="#6B577B"/>
<path d="M3.81897 8.96725H5.36668V16.7262H3.81897V8.96725Z" fill="#6B577B"/>
</svg>
