<svg width="600" height="220" viewBox="0 0 600 220" fill="none" xmlns="http://www.w3.org/2000/svg">
<rect x="1" y="1" width="598" height="218" stroke="#161616" stroke-width="2"/>
<mask id="path-2-inside-1_151_2566" fill="white">
<path d="M32 32H300V188H32V32Z"/>
</mask>
<path d="M299 32V188H301V32H299Z" fill="#9A86A9" mask="url(#path-2-inside-1_151_2566)"/>
<path d="M70.88 40V64H63.04V43.104L64.544 43.296L56.48 64H48.32L40.256 43.392L41.76 43.168V64H33.92V40H46.688L53.856 59.552H51.008L58.112 40H70.88ZM85.4288 64.576C82.9968 64.576 80.8634 64.1707 79.0288 63.36C77.2154 62.5493 75.7968 61.408 74.7728 59.936C73.7701 58.464 73.2688 56.7573 73.2688 54.816C73.2688 52.8533 73.7701 51.136 74.7728 49.664C75.7968 48.192 77.2154 47.0507 79.0288 46.24C80.8634 45.4293 82.9968 45.024 85.4288 45.024C87.8608 45.024 89.9834 45.4293 91.7968 46.24C93.6314 47.0507 95.0501 48.192 96.0528 49.664C97.0768 51.136 97.5888 52.8533 97.5888 54.816C97.5888 56.7573 97.0768 58.464 96.0528 59.936C95.0501 61.408 93.6314 62.5493 91.7968 63.36C89.9834 64.1707 87.8608 64.576 85.4288 64.576ZM85.4288 58.656C86.2821 58.656 86.9968 58.5067 87.5728 58.208C88.1701 57.9093 88.6181 57.472 88.9167 56.896C89.2368 56.32 89.3968 55.6267 89.3968 54.816C89.3968 53.984 89.2368 53.28 88.9167 52.704C88.6181 52.128 88.1701 51.6907 87.5728 51.392C86.9968 51.0933 86.2821 50.944 85.4288 50.944C84.5968 50.944 83.8821 51.0933 83.2848 51.392C82.6874 51.6907 82.2288 52.128 81.9088 52.704C81.6101 53.28 81.4608 53.984 81.4608 54.816C81.4608 55.6267 81.6101 56.32 81.9088 56.896C82.2288 57.472 82.6874 57.9093 83.2848 58.208C83.8821 58.5067 84.5968 58.656 85.4288 58.656ZM111.492 60.064L108.836 60.032L114.436 45.6H123.076L114.724 64H105.444L97.0915 45.6H106.052L111.492 60.064ZM134.549 64.576C132.267 64.576 130.219 64.1707 128.405 63.36C126.613 62.528 125.195 61.376 124.149 59.904C123.104 58.4107 122.581 56.6827 122.581 54.72C122.581 52.7787 123.083 51.0827 124.085 49.632C125.109 48.1813 126.496 47.0507 128.245 46.24C129.995 45.4293 131.957 45.024 134.133 45.024C136.416 45.024 138.357 45.4933 139.957 46.432C141.557 47.3707 142.784 48.704 143.637 50.432C144.491 52.1387 144.917 54.1653 144.917 56.512H129.237V52.768H140.181L138.005 53.984C137.899 53.152 137.685 52.4587 137.365 51.904C137.045 51.3493 136.619 50.9333 136.085 50.656C135.573 50.3573 134.955 50.208 134.229 50.208C133.419 50.208 132.725 50.3893 132.149 50.752C131.595 51.1147 131.168 51.616 130.869 52.256C130.592 52.8747 130.453 53.5787 130.453 54.368C130.453 55.392 130.677 56.256 131.125 56.96C131.595 57.6427 132.299 58.1653 133.237 58.528C134.176 58.8907 135.36 59.072 136.789 59.072C138.176 59.072 139.52 58.9013 140.821 58.56C142.144 58.1973 143.36 57.6853 144.469 57.024V61.632C143.104 62.592 141.547 63.328 139.797 63.84C138.069 64.3307 136.32 64.576 134.549 64.576ZM151.381 64.384C150.08 64.384 149.035 64.0213 148.245 63.296C147.456 62.5493 147.061 61.5787 147.061 60.384C147.061 59.1893 147.456 58.2293 148.245 57.504C149.035 56.7573 150.08 56.384 151.381 56.384C152.683 56.384 153.728 56.7573 154.517 57.504C155.307 58.2293 155.701 59.1893 155.701 60.384C155.701 61.5787 155.307 62.5493 154.517 63.296C153.728 64.0213 152.683 64.384 151.381 64.384ZM151.381 54.08C150.08 54.08 149.035 53.7173 148.245 52.992C147.456 52.2453 147.061 51.2747 147.061 50.08C147.061 48.8853 147.456 47.9253 148.245 47.2C149.035 46.4533 150.08 46.08 151.381 46.08C152.683 46.08 153.728 46.4533 154.517 47.2C155.307 47.9253 155.701 48.8853 155.701 50.08C155.701 51.2747 155.307 52.2453 154.517 52.992C153.728 53.7173 152.683 54.08 151.381 54.08Z" fill="#9A86A9"/>
<path d="M39.2656 77.5566C40.0794 77.5566 40.6328 77.5306 40.9258 77.4785V77.5176C40.9648 77.791 41.082 78.2565 41.2773 78.9141C41.4792 79.5716 41.6126 79.9753 41.6777 80.125L45.291 89.5391C45.3691 89.7344 45.4668 89.8874 45.584 89.998C45.7012 90.1022 45.8867 90.1543 46.1406 90.1543C46.3685 90.1543 46.5768 90.1934 46.7656 90.2715C46.9544 90.3496 47.0716 90.4668 47.1172 90.623C47.0911 91.0397 47.0781 91.375 47.0781 91.6289C47.0781 91.8763 47.0228 92.0358 46.9121 92.1074C45.9355 92.0358 45.1152 92 44.4512 92C43.123 92 42.2148 92.0358 41.7266 92.1074C41.6159 91.7298 41.5605 91.209 41.5605 90.5449C41.5605 90.3887 41.6745 90.2878 41.9023 90.2422C42.1367 90.1966 42.3678 90.1576 42.5957 90.125C42.8301 90.0924 42.9473 90.0111 42.9473 89.8809C42.9473 89.7897 42.918 89.6693 42.8594 89.5195L41.9316 86.8926H36.8047L35.916 89.5195C35.8574 89.6953 35.8281 89.8158 35.8281 89.8809C35.8281 90.0111 35.9453 90.0924 36.1797 90.125C36.4141 90.1576 36.6484 90.1966 36.8828 90.2422C37.1172 90.2878 37.2344 90.3887 37.2344 90.5449C37.1562 91.3783 37.0684 91.8991 36.9707 92.1074C35.9421 92.0358 35.0859 92 34.4023 92C34.0052 92 33.224 92.0358 32.0586 92.1074C31.9479 92.0358 31.8926 91.8763 31.8926 91.6289C31.8926 91.375 31.9121 91.0397 31.9512 90.623C31.9967 90.4668 32.1107 90.3496 32.293 90.2715C32.4753 90.1934 32.6803 90.1543 32.9082 90.1543C33.1621 90.1543 33.3477 90.1022 33.4648 89.998C33.582 89.8874 33.6797 89.7344 33.7578 89.5391L37.3711 79.9297C37.4232 79.7865 37.4492 79.679 37.4492 79.6074C37.4492 79.4772 37.3809 79.3926 37.2441 79.3535C37.1074 79.3079 36.9577 79.2917 36.7949 79.3047C36.6387 79.3177 36.4922 79.2982 36.3555 79.2461C36.2188 79.1875 36.1504 79.0866 36.1504 78.9434C36.1504 78.9303 36.1569 78.8978 36.1699 78.8457C36.2611 78.1165 36.375 77.6608 36.5117 77.4785C37.3125 77.5306 38.2305 77.5566 39.2656 77.5566ZM39.3926 79.7344C38.709 81.401 38.0156 83.2923 37.3125 85.4082H41.4141C41.1016 84.4642 40.776 83.5202 40.4375 82.5762C40.099 81.6322 39.8385 80.9225 39.6562 80.4473L39.3926 79.7344ZM50.9355 82.4297V83.0645C51.2285 82.5957 51.6647 82.1855 52.2441 81.834C52.8236 81.4824 53.377 81.3066 53.9043 81.3066C54.2493 81.3066 54.5781 81.3652 54.8906 81.4824C55.2031 81.5931 55.4733 81.7949 55.7012 82.0879C55.9355 82.3809 56.0527 82.7389 56.0527 83.1621C56.0527 84.321 55.4375 84.9004 54.207 84.9004C54.181 84.9004 54.1549 84.8971 54.1289 84.8906C54.1029 84.8841 54.0801 84.8743 54.0605 84.8613C54.0475 84.8483 54.0345 84.8353 54.0215 84.8223C54.0085 84.8092 53.9954 84.7897 53.9824 84.7637C53.9759 84.7376 53.9694 84.7148 53.9629 84.6953C53.9564 84.6758 53.9499 84.6465 53.9434 84.6074C53.9368 84.5618 53.9303 84.526 53.9238 84.5C53.9238 84.474 53.9206 84.4382 53.9141 84.3926C53.9141 84.3405 53.9108 84.2982 53.9043 84.2656L53.7871 83.25C53.6113 83.1654 53.4193 83.123 53.2109 83.123C52.8333 83.123 52.4525 83.263 52.0684 83.543C51.6908 83.8164 51.4108 84.1354 51.2285 84.5V89.4414C51.2285 89.5391 51.2318 89.6172 51.2383 89.6758C51.2513 89.7279 51.2741 89.7897 51.3066 89.8613C51.3457 89.9329 51.4108 89.9883 51.502 90.0273C51.5931 90.0599 51.7103 90.0762 51.8535 90.0762C52.1009 90.0762 52.3125 90.1152 52.4883 90.1934C52.6641 90.2715 52.752 90.3887 52.752 90.5449C52.752 90.8574 52.6999 91.1667 52.5957 91.4727C52.4915 91.7786 52.3385 91.9805 52.1367 92.0781C51.681 92.026 51.0137 92 50.1348 92C49.2559 92 48.582 92.026 48.1133 92.0781C47.8984 91.9805 47.7422 91.7819 47.6445 91.4824C47.5469 91.1764 47.498 90.8639 47.498 90.5449C47.498 90.3887 47.5859 90.2715 47.7617 90.1934C47.9375 90.1152 48.1491 90.0762 48.3965 90.0762C48.6504 90.0762 48.8164 90.0241 48.8945 89.9199C48.9727 89.8092 49.0117 89.6562 49.0117 89.4609V84.3242C49.0117 83.9792 48.9108 83.735 48.709 83.5918C48.5137 83.4486 48.1328 83.3639 47.5664 83.3379C47.4818 83.3184 47.4264 83.276 47.4004 83.2109C47.3809 83.1458 47.3711 83.0059 47.3711 82.791C47.3711 82.459 47.4069 82.166 47.4785 81.9121C47.5501 81.6582 47.6217 81.5117 47.6934 81.4727C48.1556 81.5443 48.6081 81.5801 49.0508 81.5801C49.3242 81.5801 49.6107 81.5638 49.9102 81.5312C50.2161 81.4922 50.3789 81.4727 50.3984 81.4727C50.6263 81.4727 50.7728 81.5312 50.8379 81.6484C50.903 81.7591 50.9355 82.0195 50.9355 82.4297ZM60.3887 82.4297V83.0645C60.6816 82.5957 61.1178 82.1855 61.6973 81.834C62.2767 81.4824 62.8301 81.3066 63.3574 81.3066C63.7025 81.3066 64.0312 81.3652 64.3438 81.4824C64.6562 81.5931 64.9264 81.7949 65.1543 82.0879C65.3887 82.3809 65.5059 82.7389 65.5059 83.1621C65.5059 84.321 64.8906 84.9004 63.6602 84.9004C63.6341 84.9004 63.6081 84.8971 63.582 84.8906C63.556 84.8841 63.5332 84.8743 63.5137 84.8613C63.5007 84.8483 63.4876 84.8353 63.4746 84.8223C63.4616 84.8092 63.4486 84.7897 63.4355 84.7637C63.429 84.7376 63.4225 84.7148 63.416 84.6953C63.4095 84.6758 63.403 84.6465 63.3965 84.6074C63.39 84.5618 63.3835 84.526 63.377 84.5C63.377 84.474 63.3737 84.4382 63.3672 84.3926C63.3672 84.3405 63.3639 84.2982 63.3574 84.2656L63.2402 83.25C63.0645 83.1654 62.8724 83.123 62.6641 83.123C62.2865 83.123 61.9056 83.263 61.5215 83.543C61.1439 83.8164 60.8639 84.1354 60.6816 84.5V89.4414C60.6816 89.5391 60.6849 89.6172 60.6914 89.6758C60.7044 89.7279 60.7272 89.7897 60.7598 89.8613C60.7988 89.9329 60.8639 89.9883 60.9551 90.0273C61.0462 90.0599 61.1634 90.0762 61.3066 90.0762C61.554 90.0762 61.7656 90.1152 61.9414 90.1934C62.1172 90.2715 62.2051 90.3887 62.2051 90.5449C62.2051 90.8574 62.153 91.1667 62.0488 91.4727C61.9447 91.7786 61.7917 91.9805 61.5898 92.0781C61.1341 92.026 60.4668 92 59.5879 92C58.709 92 58.0352 92.026 57.5664 92.0781C57.3516 91.9805 57.1953 91.7819 57.0977 91.4824C57 91.1764 56.9512 90.8639 56.9512 90.5449C56.9512 90.3887 57.0391 90.2715 57.2148 90.1934C57.3906 90.1152 57.6022 90.0762 57.8496 90.0762C58.1035 90.0762 58.2695 90.0241 58.3477 89.9199C58.4258 89.8092 58.4648 89.6562 58.4648 89.4609V84.3242C58.4648 83.9792 58.3639 83.735 58.1621 83.5918C57.9668 83.4486 57.5859 83.3639 57.0195 83.3379C56.9349 83.3184 56.8796 83.276 56.8535 83.2109C56.834 83.1458 56.8242 83.0059 56.8242 82.791C56.8242 82.459 56.86 82.166 56.9316 81.9121C57.0033 81.6582 57.0749 81.5117 57.1465 81.4727C57.6087 81.5443 58.0612 81.5801 58.5039 81.5801C58.7773 81.5801 59.0638 81.5638 59.3633 81.5312C59.6693 81.4922 59.832 81.4727 59.8516 81.4727C60.0794 81.4727 60.2259 81.5312 60.291 81.6484C60.3561 81.7591 60.3887 82.0195 60.3887 82.4297ZM66.707 89.168C66.3945 88.4518 66.2383 87.6543 66.2383 86.7754C66.2383 85.8965 66.3945 85.1022 66.707 84.3926C67.0195 83.6829 67.4362 83.11 67.957 82.6738C68.4779 82.2311 69.0605 81.8926 69.7051 81.6582C70.3496 81.4238 71.0234 81.3066 71.7266 81.3066C72.4232 81.3066 73.0938 81.4238 73.7383 81.6582C74.3828 81.8926 74.9622 82.2311 75.4766 82.6738C75.9974 83.11 76.4141 83.6829 76.7266 84.3926C77.0391 85.1022 77.1953 85.8965 77.1953 86.7754C77.1953 87.6543 77.0391 88.4518 76.7266 89.168C76.4141 89.8776 75.9974 90.4538 75.4766 90.8965C74.9622 91.3392 74.3828 91.6777 73.7383 91.9121C73.0938 92.1465 72.4232 92.2637 71.7266 92.2637C71.0234 92.2637 70.3496 92.1465 69.7051 91.9121C69.0605 91.6777 68.4779 91.3392 67.957 90.8965C67.4362 90.4538 67.0195 89.8776 66.707 89.168ZM69.4707 83.9727C68.8392 84.6432 68.5234 85.5775 68.5234 86.7754C68.5234 87.9733 68.8392 88.9108 69.4707 89.5879C70.1022 90.2585 70.8477 90.5938 71.707 90.5938C72.1172 90.5938 72.5111 90.5124 72.8887 90.3496C73.2663 90.1868 73.6048 89.9525 73.9043 89.6465C74.2103 89.334 74.4544 88.9303 74.6367 88.4355C74.819 87.9408 74.9102 87.3874 74.9102 86.7754C74.9102 86.1634 74.819 85.61 74.6367 85.1152C74.4544 84.6204 74.2103 84.2201 73.9043 83.9141C73.6048 83.6081 73.2663 83.3737 72.8887 83.2109C72.5111 83.0482 72.1172 82.9668 71.707 82.9668C70.8477 82.9668 70.1022 83.3021 69.4707 83.9727ZM87.625 89.6367L86.2578 86.1699L85.2227 89.6367C85.1771 89.7539 85.112 89.9329 85.0273 90.1738C84.9492 90.4147 84.8906 90.5872 84.8516 90.6914C84.8125 90.7956 84.7539 90.9355 84.6758 91.1113C84.6042 91.2871 84.5358 91.4173 84.4707 91.502C84.4121 91.5801 84.3372 91.6647 84.2461 91.7559C84.1549 91.847 84.054 91.9121 83.9434 91.9512C83.8392 91.9837 83.722 92 83.5918 92C83.4421 92 83.3086 91.987 83.1914 91.9609C83.0742 91.9349 82.9701 91.9056 82.8789 91.873C82.7943 91.834 82.7096 91.7721 82.625 91.6875C82.5469 91.5964 82.4818 91.515 82.4297 91.4434C82.3776 91.3717 82.3158 91.2611 82.2441 91.1113C82.179 90.9551 82.1237 90.8216 82.0781 90.7109C82.0391 90.6003 81.9772 90.4342 81.8926 90.2129C81.8079 89.985 81.7363 89.793 81.6777 89.6367L79.3926 83.8457C79.347 83.7285 79.3079 83.6439 79.2754 83.5918C79.2428 83.5332 79.1745 83.4779 79.0703 83.4258C78.9727 83.3672 78.8424 83.3379 78.6797 83.3379C78.5039 83.3379 78.3477 83.2988 78.2109 83.2207C78.0742 83.1426 77.9993 83.0254 77.9863 82.8691C77.9408 82.6934 77.918 82.4915 77.918 82.2637C77.918 81.834 78.0319 81.5671 78.2598 81.4629C78.7285 81.541 79.3633 81.5801 80.1641 81.5801C81.043 81.5801 81.7624 81.541 82.3223 81.4629C82.4655 81.6126 82.5762 82.0814 82.6543 82.8691V82.9375C82.6543 83.2044 82.4492 83.3379 82.0391 83.3379C81.668 83.3379 81.4824 83.4518 81.4824 83.6797C81.4824 83.7708 81.502 83.8587 81.541 83.9434L83.5625 89.5098L85.252 83.9434C85.2845 83.8457 85.3008 83.7578 85.3008 83.6797C85.3008 83.4518 85.0859 83.3379 84.6562 83.3379C84.3112 83.3379 84.1387 83.2044 84.1387 82.9375V82.8691C84.1387 82.8561 84.1387 82.8366 84.1387 82.8105C84.1452 82.7845 84.1484 82.765 84.1484 82.752C84.194 82.0098 84.2363 81.5801 84.2754 81.4629C85.0176 81.541 85.7695 81.5801 86.5312 81.5801C87.2214 81.5801 87.8594 81.541 88.4453 81.4629C88.6667 81.5671 88.7773 81.834 88.7773 82.2637C88.7773 82.4525 88.7546 82.6543 88.709 82.8691C88.6895 83.0254 88.6113 83.1426 88.4746 83.2207C88.3444 83.2988 88.1914 83.3379 88.0156 83.3379C87.8659 83.3379 87.7422 83.3639 87.6445 83.416C87.5469 83.4616 87.4785 83.5104 87.4395 83.5625C87.4069 83.6146 87.3678 83.6927 87.3223 83.7969C87.6152 84.5326 88.0254 85.6035 88.5527 87.0098C89.0866 88.4095 89.4056 89.2428 89.5098 89.5098L91.1992 83.9434C91.2318 83.8457 91.248 83.7578 91.248 83.6797C91.248 83.4518 91.0983 83.3379 90.7988 83.3379C90.4538 83.3379 90.2812 83.2044 90.2812 82.9375V82.8691C90.3789 82.0684 90.4896 81.5996 90.6133 81.4629C91.1992 81.541 91.821 81.5801 92.4785 81.5801C93.2663 81.5801 94.0215 81.541 94.7441 81.4629C94.9264 81.5605 95.0176 81.8177 95.0176 82.2344C95.0176 82.4297 94.9948 82.6413 94.9492 82.8691C94.9167 83.0254 94.8027 83.1426 94.6074 83.2207C94.4186 83.2988 94.2038 83.3379 93.9629 83.3379C93.8978 83.3379 93.8359 83.3444 93.7773 83.3574C93.7188 83.3639 93.6699 83.3737 93.6309 83.3867C93.5918 83.3997 93.5527 83.4225 93.5137 83.4551C93.4811 83.4811 93.4551 83.5039 93.4355 83.5234C93.416 83.5365 93.3932 83.5658 93.3672 83.6113C93.3411 83.6569 93.3216 83.6895 93.3086 83.709C93.3021 83.7285 93.2858 83.7676 93.2598 83.8262C93.2402 83.8783 93.2272 83.9108 93.2207 83.9238L91.1699 89.6367C91.1243 89.7539 91.0592 89.9329 90.9746 90.1738C90.8965 90.4147 90.8379 90.5872 90.7988 90.6914C90.7598 90.7956 90.7012 90.9355 90.623 91.1113C90.5514 91.2871 90.4831 91.4173 90.418 91.502C90.3594 91.5801 90.2845 91.6647 90.1934 91.7559C90.1022 91.847 90.0013 91.9121 89.8906 91.9512C89.7865 91.9837 89.6693 92 89.5391 92C89.3438 92 89.1712 91.9772 89.0215 91.9316C88.8783 91.8796 88.7611 91.8242 88.6699 91.7656C88.5788 91.7005 88.4844 91.5866 88.3867 91.4238C88.2956 91.2546 88.224 91.1081 88.1719 90.9844C88.1198 90.8607 88.0352 90.6556 87.918 90.3691C87.8073 90.0827 87.7096 89.8385 87.625 89.6367ZM101.443 77.3223C102.524 77.4069 103.302 77.4492 103.777 77.4492C104.285 77.4492 105.089 77.4069 106.189 77.3223C106.333 77.4264 106.437 77.638 106.502 77.957C106.574 78.2695 106.609 78.5951 106.609 78.9336C106.609 79.0898 106.502 79.207 106.287 79.2852C106.072 79.3633 105.815 79.4023 105.516 79.4023C105.372 79.4023 105.255 79.4219 105.164 79.4609C105.073 79.4935 105.008 79.5456 104.969 79.6172C104.936 79.6888 104.913 79.7539 104.9 79.8125C104.894 79.8646 104.891 79.9395 104.891 80.0371V84.2656L110.35 80.0176C110.493 79.9069 110.564 79.806 110.564 79.7148C110.564 79.5846 110.516 79.4935 110.418 79.4414C110.32 79.3893 110.213 79.3665 110.096 79.373C109.985 79.373 109.881 79.3535 109.783 79.3145C109.686 79.2754 109.637 79.2038 109.637 79.0996C109.637 79.0215 109.692 78.7708 109.803 78.3477C109.835 78.263 109.891 78.0872 109.969 77.8203C110.047 77.5469 110.109 77.3809 110.154 77.3223C111.287 77.4069 112.114 77.4492 112.635 77.4492C113.071 77.4492 113.891 77.4069 115.096 77.3223C115.206 77.4655 115.281 77.7096 115.32 78.0547C115.366 78.3997 115.389 78.6927 115.389 78.9336C115.389 79.0964 115.307 79.2168 115.145 79.2949C114.988 79.3665 114.822 79.4023 114.646 79.4023C114.399 79.4023 114.181 79.4316 113.992 79.4902C113.803 79.5423 113.66 79.5977 113.562 79.6562C113.471 79.7148 113.361 79.7995 113.23 79.9102L108.016 84.2559C108.426 84.7637 108.849 85.3236 109.285 85.9355C109.721 86.5475 110.066 87.0423 110.32 87.4199C110.574 87.7975 110.864 88.1849 111.189 88.582C111.515 88.9727 111.818 89.2754 112.098 89.4902C112.384 89.7051 112.723 89.8809 113.113 90.0176C113.51 90.1543 113.953 90.2227 114.441 90.2227C115.236 90.2227 115.633 90.3073 115.633 90.4766V90.8379C115.633 91.0592 115.617 91.2383 115.584 91.375C115.558 91.5117 115.493 91.6582 115.389 91.8145C115.285 91.9642 115.112 92.0749 114.871 92.1465C114.63 92.2246 114.321 92.2637 113.943 92.2637C113.318 92.2637 112.768 92.2116 112.293 92.1074C111.818 92.0033 111.398 91.8372 111.033 91.6094C110.669 91.375 110.353 91.1211 110.086 90.8477C109.819 90.5742 109.542 90.2194 109.256 89.7832C108.976 89.347 108.715 88.9206 108.475 88.5039C108.24 88.0872 107.931 87.5729 107.547 86.9609C107.169 86.3424 106.788 85.7663 106.404 85.2324L104.891 86.375V89.4121C104.891 89.5098 104.894 89.5879 104.9 89.6465C104.913 89.6986 104.936 89.7604 104.969 89.832C105.008 89.9036 105.073 89.959 105.164 89.998C105.255 90.0306 105.372 90.0469 105.516 90.0469C105.815 90.0469 106.072 90.0859 106.287 90.1641C106.502 90.2422 106.609 90.3594 106.609 90.5156C106.609 90.8542 106.574 91.1797 106.502 91.4922C106.437 91.7982 106.333 92.0033 106.189 92.1074C105.258 92.0358 104.454 92 103.777 92C103.139 92 102.361 92.0358 101.443 92.1074C101.268 92.0033 101.137 91.7949 101.053 91.4824C100.968 91.1699 100.926 90.8477 100.926 90.5156C100.926 90.3594 101.033 90.2422 101.248 90.1641C101.463 90.0859 101.72 90.0469 102.02 90.0469C102.273 90.0469 102.439 89.9948 102.518 89.8906C102.596 89.7799 102.635 89.627 102.635 89.4316V79.998C102.635 79.8027 102.596 79.653 102.518 79.5488C102.439 79.4382 102.273 79.3828 102.02 79.3828C101.29 79.3828 100.926 79.2135 100.926 78.875C100.926 78.556 100.968 78.2435 101.053 77.9375C101.137 77.625 101.268 77.4199 101.443 77.3223ZM126.404 86.2285C126.404 86.528 126.326 86.7591 126.17 86.9219C126.02 87.0781 125.734 87.1562 125.311 87.1562H118.572C118.598 87.7487 118.702 88.2598 118.885 88.6895C119.067 89.1191 119.308 89.4577 119.607 89.7051C119.907 89.946 120.236 90.125 120.594 90.2422C120.952 90.3529 121.342 90.4082 121.766 90.4082C122.358 90.4082 122.964 90.304 123.582 90.0957C124.201 89.8874 124.76 89.5944 125.262 89.2168C125.633 89.653 125.818 90.0827 125.818 90.5059C125.818 90.7858 125.633 91.0625 125.262 91.3359C124.891 91.6029 124.389 91.8242 123.758 92C123.126 92.1758 122.469 92.2637 121.785 92.2637C121.225 92.2637 120.691 92.2083 120.184 92.0977C119.682 91.987 119.188 91.7949 118.699 91.5215C118.217 91.2415 117.801 90.89 117.449 90.4668C117.098 90.0436 116.814 89.5 116.6 88.8359C116.385 88.1719 116.277 87.4199 116.277 86.5801C116.277 85.7598 116.434 85.0078 116.746 84.3242C117.059 83.6406 117.472 83.084 117.986 82.6543C118.501 82.2181 119.074 81.8828 119.705 81.6484C120.343 81.4141 120.997 81.2969 121.668 81.2969C122.163 81.2969 122.638 81.3587 123.094 81.4824C123.549 81.6061 123.979 81.8014 124.383 82.0684C124.786 82.3288 125.138 82.651 125.438 83.0352C125.737 83.4128 125.971 83.875 126.141 84.4219C126.316 84.9688 126.404 85.571 126.404 86.2285ZM124.432 85.6426C124.373 84.7376 124.087 84.0508 123.572 83.582C123.064 83.1068 122.456 82.8691 121.746 82.8691C120.991 82.8691 120.304 83.123 119.686 83.6309C119.074 84.1322 118.722 84.8027 118.631 85.6426H124.432ZM131.121 83.9434L133.631 89.5293L135.809 83.9434C135.841 83.8457 135.857 83.7578 135.857 83.6797C135.857 83.556 135.805 83.4648 135.701 83.4062C135.604 83.3477 135.493 83.3151 135.369 83.3086C135.252 83.3021 135.141 83.2695 135.037 83.2109C134.939 83.1458 134.891 83.0449 134.891 82.9082V82.8398C134.988 81.9674 135.099 81.4564 135.223 81.3066C135.861 81.4759 136.548 81.5605 137.283 81.5605C138.064 81.5605 138.784 81.4759 139.441 81.3066C139.695 81.4238 139.822 81.7331 139.822 82.2344C139.822 82.6315 139.744 82.9115 139.588 83.0742C139.432 83.2305 139.158 83.3086 138.768 83.3086C138.676 83.3086 138.595 83.3184 138.523 83.3379C138.452 83.3574 138.393 83.377 138.348 83.3965C138.309 83.416 138.27 83.4518 138.23 83.5039C138.191 83.556 138.165 83.5983 138.152 83.6309C138.139 83.6569 138.117 83.7057 138.084 83.7773C138.058 83.849 138.038 83.8978 138.025 83.9238L134.119 92.9277C133.735 93.7806 133.276 94.4023 132.742 94.793C132.215 95.1901 131.567 95.3887 130.799 95.3887C130.187 95.3887 129.66 95.2682 129.217 95.0273C128.774 94.793 128.553 94.526 128.553 94.2266C128.553 93.8424 128.585 93.582 128.65 93.4453C128.715 93.3151 128.833 93.25 129.002 93.25C129.067 93.25 129.292 93.2956 129.676 93.3867C130.066 93.4844 130.428 93.5332 130.76 93.5332C130.91 93.5332 131.027 93.5267 131.111 93.5137C131.196 93.5072 131.284 93.4746 131.375 93.416C131.466 93.3574 131.535 93.3021 131.58 93.25C131.626 93.1979 131.697 93.0872 131.795 92.918C131.893 92.7487 131.974 92.5892 132.039 92.4395C132.104 92.2962 132.215 92.0618 132.371 91.7363C132.534 91.4043 132.687 91.0918 132.83 90.7988C132.589 90.7988 132.41 90.7793 132.293 90.7402C132.176 90.6947 132.088 90.6035 132.029 90.4668L128.904 83.9238C128.898 83.9043 128.878 83.8555 128.846 83.7773C128.813 83.6992 128.79 83.6504 128.777 83.6309C128.764 83.6048 128.735 83.5658 128.689 83.5137C128.65 83.4551 128.608 83.416 128.562 83.3965C128.523 83.377 128.468 83.3574 128.396 83.3379C128.331 83.3184 128.253 83.3086 128.162 83.3086C127.771 83.3086 127.498 83.2305 127.342 83.0742C127.186 82.9115 127.107 82.6315 127.107 82.2344C127.107 81.7331 127.234 81.4238 127.488 81.3066C128.081 81.4759 128.8 81.5605 129.646 81.5605C130.506 81.5605 131.258 81.4759 131.902 81.3066C132.026 81.4564 132.137 81.9674 132.234 82.8398V82.9082C132.234 83.0449 132.173 83.1458 132.049 83.2109C131.925 83.276 131.792 83.3118 131.648 83.3184C131.505 83.3249 131.372 83.3574 131.248 83.416C131.124 83.4681 131.062 83.556 131.062 83.6797C131.062 83.7839 131.082 83.8717 131.121 83.9434ZM149.48 89.4121C149.48 90.0697 149.279 90.6165 148.875 91.0527C148.478 91.4824 147.951 91.7917 147.293 91.9805C146.635 92.1693 145.857 92.2637 144.959 92.2637C143.579 92.2637 142.498 92.0651 141.717 91.668C140.942 91.2708 140.555 90.6621 140.555 89.8418C140.555 88.9108 141.124 88.4453 142.264 88.4453C142.446 88.4453 142.566 88.4811 142.625 88.5527C142.684 88.6243 142.713 88.7611 142.713 88.9629V90.291C142.954 90.4212 143.309 90.5221 143.777 90.5938C144.253 90.6654 144.731 90.7012 145.213 90.7012C145.786 90.7012 146.258 90.584 146.629 90.3496C147.007 90.1087 147.195 89.7799 147.195 89.3633C147.195 89.0703 147.101 88.8099 146.912 88.582C146.723 88.3477 146.476 88.1589 146.17 88.0156C145.864 87.8724 145.512 87.7292 145.115 87.5859C144.725 87.4362 144.324 87.2995 143.914 87.1758C143.51 87.0521 143.11 86.8958 142.713 86.707C142.322 86.5182 141.974 86.3132 141.668 86.0918C141.362 85.8704 141.115 85.5807 140.926 85.2227C140.737 84.8646 140.643 84.4609 140.643 84.0117C140.643 83.4323 140.857 82.931 141.287 82.5078C141.717 82.0846 142.241 81.7786 142.859 81.5898C143.484 81.401 144.152 81.3066 144.861 81.3066C147.778 81.3066 149.236 82.153 149.236 83.8457C149.236 83.9499 149.217 84.0605 149.178 84.1777C149.145 84.2949 149.077 84.4316 148.973 84.5879C148.875 84.7441 148.706 84.8743 148.465 84.9785C148.23 85.0762 147.941 85.125 147.596 85.125C147.531 85.125 147.475 85.1185 147.43 85.1055C147.391 85.0924 147.358 85.0794 147.332 85.0664C147.312 85.0469 147.293 85.0176 147.273 84.9785C147.26 84.9329 147.251 84.9004 147.244 84.8809C147.244 84.8613 147.238 84.819 147.225 84.7539C147.218 84.6823 147.215 84.6335 147.215 84.6074L147.078 83.2402C146.987 83.1491 146.704 83.0482 146.229 82.9375C145.76 82.8268 145.356 82.7715 145.018 82.7715C144.354 82.7715 143.859 82.8952 143.533 83.1426C143.214 83.39 143.055 83.7025 143.055 84.0801C143.055 84.3535 143.172 84.5944 143.406 84.8027C143.647 85.0111 143.956 85.1901 144.334 85.3398C144.712 85.4831 145.128 85.6263 145.584 85.7695C146.04 85.9128 146.495 86.0853 146.951 86.2871C147.407 86.4824 147.824 86.707 148.201 86.9609C148.579 87.2148 148.885 87.5534 149.119 87.9766C149.36 88.3932 149.48 88.8717 149.48 89.4121Z" fill="#9A86A9"/>
<path d="M82.5 128C82.5 126.067 84.067 124.5 86 124.5H128C129.933 124.5 131.5 126.067 131.5 128V155.5H82.5V128Z" fill="#E9E8C9"/>
<path d="M82.5 128C82.5 126.067 84.067 124.5 86 124.5H128C129.933 124.5 131.5 126.067 131.5 128V155.5H82.5V128Z" stroke="#DFDFDF"/>
<mask id="mask0_151_2566" style="mask-type:alpha" maskUnits="userSpaceOnUse" x="95" y="128" width="24" height="24">
<rect x="95" y="128" width="24" height="24" fill="#D9D9D9"/>
</mask>
<g mask="url(#mask0_151_2566)">
<path d="M106 148V135.825L100.4 141.425L99 140L107 132L115 140L113.6 141.425L108 135.825V148H106Z" fill="#9A86A9"/>
</g>
<path d="M32.5 160C32.5 158.067 34.067 156.5 36 156.5H81.5V187.5H36C34.067 187.5 32.5 185.933 32.5 184V160Z" fill="#E9E8C9"/>
<path d="M32.5 160C32.5 158.067 34.067 156.5 36 156.5H81.5V187.5H36C34.067 187.5 32.5 185.933 32.5 184V160Z" stroke="#DFDFDF"/>
<mask id="mask1_151_2566" style="mask-type:alpha" maskUnits="userSpaceOnUse" x="45" y="160" width="24" height="24">
<rect x="45" y="184" width="24" height="24" transform="rotate(-90 45 184)" fill="#D9D9D9"/>
</mask>
<g mask="url(#mask1_151_2566)">
<path d="M65 173H52.825L58.425 178.6L57 180L49 172L57 164L58.425 165.4L52.825 171H65V173Z" fill="#9A86A9"/>
</g>
<rect x="82.5" y="156.5" width="49" height="31" fill="#E9E8C9"/>
<rect x="82.5" y="156.5" width="49" height="31" stroke="#DFDFDF"/>
<mask id="mask2_151_2566" style="mask-type:alpha" maskUnits="userSpaceOnUse" x="95" y="160" width="24" height="24">
<rect x="119" y="184" width="24" height="24" transform="rotate(-180 119 184)" fill="#D9D9D9"/>
</mask>
<g mask="url(#mask2_151_2566)">
<path d="M108 164V176.175L113.6 170.575L115 172L107 180L99 172L100.4 170.575L106 176.175V164H108Z" fill="#9A86A9"/>
</g>
<path d="M181.5 184C181.5 185.933 179.933 187.5 178 187.5L132.5 187.5L132.5 156.5L178 156.5C179.933 156.5 181.5 158.067 181.5 160L181.5 184Z" fill="#E9E8C9"/>
<path d="M181.5 184C181.5 185.933 179.933 187.5 178 187.5L132.5 187.5L132.5 156.5L178 156.5C179.933 156.5 181.5 158.067 181.5 160L181.5 184Z" stroke="#DFDFDF"/>
<mask id="mask3_151_2566" style="mask-type:alpha" maskUnits="userSpaceOnUse" x="145" y="160" width="24" height="24">
<rect x="169" y="160" width="24" height="24" transform="rotate(90 169 160)" fill="#D9D9D9"/>
</mask>
<g mask="url(#mask3_151_2566)">
<path d="M149 171L161.175 171L155.575 165.4L157 164L165 172L157 180L155.575 178.6L161.175 173L149 173L149 171Z" fill="#9A86A9"/>
</g>
<path d="M339.616 59.968V53.408H355.968V59.968H339.616ZM353.44 40L363.968 64H355.168L346.88 43.648H348.992L340.704 64H331.904L342.432 40H353.44ZM387.075 55.904C386.925 57.632 386.317 59.1467 385.251 60.448C384.184 61.7493 382.787 62.7627 381.059 63.488C379.352 64.2133 377.421 64.576 375.267 64.576C372.92 64.576 370.851 64.1707 369.059 63.36C367.267 62.528 365.869 61.376 364.867 59.904C363.864 58.432 363.363 56.736 363.363 54.816C363.363 52.8747 363.864 51.1787 364.867 49.728C365.869 48.256 367.267 47.104 369.059 46.272C370.851 45.44 372.92 45.024 375.267 45.024C377.421 45.024 379.352 45.3867 381.059 46.112C382.787 46.8373 384.184 47.8507 385.251 49.152C386.317 50.432 386.925 51.9467 387.075 53.696H379.043C378.851 52.7787 378.413 52.096 377.731 51.648C377.069 51.1787 376.248 50.944 375.267 50.944C374.52 50.944 373.859 51.0933 373.283 51.392C372.728 51.6693 372.301 52.096 372.003 52.672C371.704 53.248 371.555 53.9627 371.555 54.816C371.555 55.6693 371.704 56.384 372.003 56.96C372.301 57.5147 372.728 57.9413 373.283 58.24C373.859 58.5173 374.52 58.656 375.267 58.656C376.248 58.656 377.069 58.4107 377.731 57.92C378.413 57.408 378.851 56.736 379.043 55.904H387.075ZM387.661 51.52V48.032L391.277 46.208L394.829 40.576H399.405V45.6H406.605V51.52H399.405V55.296C399.405 56.4693 399.629 57.3013 400.077 57.792C400.525 58.2613 401.442 58.496 402.829 58.496C403.682 58.496 404.439 58.4427 405.101 58.336C405.783 58.208 406.391 58.0587 406.925 57.888V63.776C406.199 63.9893 405.303 64.1707 404.237 64.32C403.191 64.4907 402.093 64.576 400.941 64.576C398.765 64.576 396.962 64.256 395.533 63.616C394.103 62.9547 393.037 62.0053 392.333 60.768C391.629 59.5307 391.277 58.0587 391.277 56.352V51.52H387.661ZM409.317 45.216L413.381 46.048L417.445 45.216V64H409.317V45.216ZM413.381 44.256C412.016 44.256 410.917 43.9253 410.085 43.264C409.253 42.6027 408.837 41.696 408.837 40.544C408.837 39.392 409.253 38.4853 410.085 37.824C410.917 37.1627 412.016 36.832 413.381 36.832C414.768 36.832 415.867 37.1627 416.677 37.824C417.509 38.4853 417.925 39.392 417.925 40.544C417.925 41.696 417.509 42.6027 416.677 43.264C415.867 43.9253 414.768 44.256 413.381 44.256ZM431.929 64.576C429.497 64.576 427.363 64.1707 425.529 63.36C423.715 62.5493 422.297 61.408 421.273 59.936C420.27 58.464 419.769 56.7573 419.769 54.816C419.769 52.8533 420.27 51.136 421.273 49.664C422.297 48.192 423.715 47.0507 425.529 46.24C427.363 45.4293 429.497 45.024 431.929 45.024C434.361 45.024 436.483 45.4293 438.297 46.24C440.131 47.0507 441.55 48.192 442.553 49.664C443.577 51.136 444.089 52.8533 444.089 54.816C444.089 56.7573 443.577 58.464 442.553 59.936C441.55 61.408 440.131 62.5493 438.297 63.36C436.483 64.1707 434.361 64.576 431.929 64.576ZM431.929 58.656C432.782 58.656 433.497 58.5067 434.073 58.208C434.67 57.9093 435.118 57.472 435.417 56.896C435.737 56.32 435.897 55.6267 435.897 54.816C435.897 53.984 435.737 53.28 435.417 52.704C435.118 52.128 434.67 51.6907 434.073 51.392C433.497 51.0933 432.782 50.944 431.929 50.944C431.097 50.944 430.382 51.0933 429.785 51.392C429.187 51.6907 428.729 52.128 428.409 52.704C428.11 53.28 427.961 53.984 427.961 54.816C427.961 55.6267 428.11 56.32 428.409 56.896C428.729 57.472 429.187 57.9093 429.785 58.208C430.382 58.5067 431.097 58.656 431.929 58.656ZM445.36 45.6H453.488L454.768 53.44V64H446.64V52.192L445.36 45.6ZM461.135 45.024C462.928 45.024 464.453 45.3867 465.712 46.112C466.97 46.816 467.93 47.8187 468.592 49.12C469.274 50.4 469.616 51.904 469.616 53.632V64H461.488V54.784C461.488 53.76 461.2 52.9707 460.624 52.416C460.069 51.8613 459.28 51.584 458.256 51.584C457.53 51.584 456.901 51.7333 456.368 52.032C455.856 52.3093 455.461 52.7253 455.184 53.28C454.906 53.8133 454.768 54.464 454.768 55.232L452.368 54.016C452.666 52.0107 453.242 50.3467 454.095 49.024C454.949 47.68 455.984 46.6773 457.2 46.016C458.416 45.3547 459.728 45.024 461.135 45.024ZM476.538 64.384C475.236 64.384 474.191 64.0213 473.402 63.296C472.612 62.5493 472.218 61.5787 472.218 60.384C472.218 59.1893 472.612 58.2293 473.402 57.504C474.191 56.7573 475.236 56.384 476.538 56.384C477.839 56.384 478.884 56.7573 479.674 57.504C480.463 58.2293 480.858 59.1893 480.858 60.384C480.858 61.5787 480.463 62.5493 479.674 63.296C478.884 64.0213 477.839 64.384 476.538 64.384ZM476.538 54.08C475.236 54.08 474.191 53.7173 473.402 52.992C472.612 52.2453 472.218 51.2747 472.218 50.08C472.218 48.8853 472.612 47.9253 473.402 47.2C474.191 46.4533 475.236 46.08 476.538 46.08C477.839 46.08 478.884 46.4533 479.674 47.2C480.463 47.9253 480.858 48.8853 480.858 50.08C480.858 51.2747 480.463 52.2453 479.674 52.992C478.884 53.7173 477.839 54.08 476.538 54.08Z" fill="#9A86A9"/>
<path d="M334.432 92.1074H333.484C333.061 90.265 332.85 88.875 332.85 87.9375C332.85 87.7878 332.996 87.6641 333.289 87.5664C333.582 87.4688 333.888 87.4199 334.207 87.4199C334.337 87.4199 334.441 87.4297 334.52 87.4492C334.728 87.9766 335.018 88.4453 335.389 88.8555C335.76 89.2656 336.163 89.5879 336.6 89.8223C337.042 90.0566 337.482 90.2357 337.918 90.3594C338.361 90.4766 338.787 90.5352 339.197 90.5352C339.946 90.5352 340.555 90.3691 341.023 90.0371C341.499 89.6986 341.736 89.2038 341.736 88.5527C341.736 88.1165 341.629 87.7357 341.414 87.4102C341.206 87.0781 340.923 86.8112 340.564 86.6094C340.213 86.401 339.806 86.2188 339.344 86.0625C338.888 85.9062 338.403 85.7598 337.889 85.623C337.381 85.4863 336.87 85.3431 336.355 85.1934C335.848 85.0436 335.363 84.8548 334.9 84.627C334.445 84.3991 334.038 84.1354 333.68 83.8359C333.328 83.5299 333.045 83.1361 332.83 82.6543C332.622 82.1725 332.518 81.6191 332.518 80.9941C332.518 80.1934 332.765 79.5033 333.26 78.9238C333.755 78.3379 334.376 77.9115 335.125 77.6445C335.88 77.3711 336.701 77.2344 337.586 77.2344C338.966 77.2344 340.138 77.5794 341.102 78.2695C341.167 78.1393 341.215 78.0124 341.248 77.8887C341.287 77.765 341.307 77.6803 341.307 77.6348C341.307 77.5892 341.333 77.5469 341.385 77.5078C341.443 77.4688 341.515 77.4492 341.6 77.4492C341.684 77.4427 341.837 77.4395 342.059 77.4395C342.254 77.4395 342.563 77.4557 342.986 77.4883C343.396 79.3047 343.602 80.597 343.602 81.3652C343.602 81.4694 343.429 81.554 343.084 81.6191C342.745 81.6842 342.413 81.7168 342.088 81.7168H341.844C341.603 80.8639 341.124 80.1641 340.408 79.6172C339.692 79.0638 338.79 78.7871 337.703 78.7871C336.785 78.7871 336.095 78.9694 335.633 79.334C335.171 79.6986 334.939 80.1966 334.939 80.8281C334.939 81.1992 335.044 81.528 335.252 81.8145C335.467 82.1009 335.753 82.3385 336.111 82.5273C336.469 82.7096 336.88 82.8757 337.342 83.0254C337.804 83.1751 338.292 83.3216 338.807 83.4648C339.321 83.6081 339.835 83.7611 340.35 83.9238C340.864 84.0866 341.352 84.2884 341.814 84.5293C342.277 84.7702 342.687 85.0469 343.045 85.3594C343.403 85.6719 343.686 86.0723 343.895 86.5605C344.109 87.0423 344.217 87.5892 344.217 88.2012C344.217 88.8978 344.08 89.5163 343.807 90.0566C343.533 90.5905 343.159 91.0137 342.684 91.3262C342.215 91.6387 341.688 91.873 341.102 92.0293C340.522 92.1855 339.897 92.2637 339.227 92.2637C338.51 92.2637 337.798 92.1432 337.088 91.9023C336.385 91.6615 335.747 91.3262 335.174 90.8965L335.008 91.8633C334.995 91.9219 334.975 91.9674 334.949 92C334.93 92.026 334.878 92.0488 334.793 92.0684C334.708 92.0944 334.588 92.1074 334.432 92.1074ZM348.553 86.2969V89.2363C348.898 89.6725 349.347 90.0111 349.9 90.252C350.46 90.4928 351.043 90.6133 351.648 90.6133C352.475 90.6133 353.162 90.2878 353.709 89.6367C354.262 88.9857 354.539 88.0319 354.539 86.7754C354.539 85.571 354.24 84.6367 353.641 83.9727C353.048 83.3021 352.335 82.9668 351.502 82.9668C350.721 82.9668 350.034 83.263 349.441 83.8555C348.849 84.4414 348.553 85.2552 348.553 86.2969ZM348.553 91.1113V93.5137C348.553 93.6113 348.556 93.6862 348.562 93.7383C348.576 93.7969 348.598 93.862 348.631 93.9336C348.67 94.0052 348.735 94.0573 348.826 94.0898C348.917 94.1289 349.035 94.1484 349.178 94.1484C349.425 94.1484 349.637 94.1875 349.812 94.2656C349.988 94.3438 350.076 94.4609 350.076 94.6172C350.076 95.3789 349.969 95.8542 349.754 96.043C349.318 95.9453 348.582 95.8965 347.547 95.8965C346.434 95.8965 345.633 95.9453 345.145 96.043C344.93 95.8477 344.822 95.3724 344.822 94.6172C344.822 94.4609 344.91 94.3438 345.086 94.2656C345.262 94.1875 345.473 94.1484 345.721 94.1484C345.975 94.1484 346.141 94.0931 346.219 93.9824C346.297 93.8783 346.336 93.7285 346.336 93.5332V84.3242C346.336 83.9792 346.235 83.735 346.033 83.5918C345.838 83.4486 345.457 83.3639 344.891 83.3379C344.806 83.3184 344.751 83.276 344.725 83.2109C344.705 83.1458 344.695 83.0059 344.695 82.791C344.695 82.459 344.731 82.166 344.803 81.9121C344.874 81.6582 344.946 81.5117 345.018 81.4727C345.519 81.5443 346.004 81.5801 346.473 81.5801C346.766 81.5801 347.075 81.5638 347.4 81.5312C347.726 81.4922 347.898 81.4727 347.918 81.4727C348.146 81.4727 348.292 81.5312 348.357 81.6484C348.429 81.7591 348.465 82.0195 348.465 82.4297V83.1328C348.803 82.5469 349.282 82.0977 349.9 81.7852C350.519 81.4661 351.16 81.3066 351.824 81.3066C352.469 81.3066 353.084 81.4238 353.67 81.6582C354.262 81.8926 354.796 82.2311 355.271 82.6738C355.747 83.11 356.124 83.6829 356.404 84.3926C356.691 85.1022 356.834 85.8965 356.834 86.7754C356.834 87.6543 356.691 88.4518 356.404 89.168C356.118 89.8776 355.734 90.4538 355.252 90.8965C354.777 91.3392 354.24 91.6777 353.641 91.9121C353.042 92.1465 352.417 92.2637 351.766 92.2637C350.47 92.2637 349.399 91.8796 348.553 91.1113ZM364.734 90.6719C364.259 91.1732 363.657 91.5638 362.928 91.8438C362.205 92.1237 361.469 92.2637 360.721 92.2637C359.79 92.2637 359.021 92.0163 358.416 91.5215C357.811 91.0267 357.508 90.3105 357.508 89.373C357.508 88.3704 357.993 87.6152 358.963 87.1074C359.692 86.7168 360.942 86.3783 362.713 86.0918C363.045 86.0332 363.585 85.9486 364.334 85.8379C364.334 84.7311 364.194 83.9694 363.914 83.5527C363.634 83.1361 363.097 82.9277 362.303 82.9277C361.723 82.9277 361.079 83.0579 360.369 83.3184C359.66 83.5788 359.093 83.9401 358.67 84.4023C358.143 83.9596 357.879 83.5267 357.879 83.1035C357.879 82.7389 358.13 82.4167 358.631 82.1367C359.132 81.8503 359.721 81.6419 360.398 81.5117C361.082 81.375 361.766 81.3066 362.449 81.3066C363.094 81.3066 363.657 81.388 364.139 81.5508C364.627 81.707 365.057 81.9674 365.428 82.332C365.799 82.6966 366.079 83.1979 366.268 83.8359C366.463 84.474 366.561 85.2487 366.561 86.1602V89.2852C366.561 89.5521 366.58 89.7539 366.619 89.8906C366.665 90.0208 366.714 90.1022 366.766 90.1348C366.818 90.1608 366.902 90.1803 367.02 90.1934C367.221 90.2129 367.371 90.2324 367.469 90.252C367.566 90.265 367.68 90.2878 367.811 90.3203C367.941 90.3529 368.032 90.3952 368.084 90.4473C368.143 90.4993 368.172 90.5645 368.172 90.6426C368.172 91.4108 368.064 91.8893 367.85 92.0781C367.537 92.026 367.13 92 366.629 92C366.173 92 365.75 92.0228 365.359 92.0684C365.314 92.0358 365.255 91.9902 365.184 91.9316C365.118 91.873 365.027 91.7233 364.91 91.4824C364.793 91.2415 364.734 90.9714 364.734 90.6719ZM361.17 90.5254C361.762 90.5254 362.404 90.3626 363.094 90.0371C363.784 89.7051 364.201 89.4056 364.344 89.1387V87.4102C362.566 87.7292 361.365 88.0156 360.74 88.2695C360.122 88.5234 359.812 88.8815 359.812 89.3438C359.812 90.1315 360.265 90.5254 361.17 90.5254ZM378.221 83.9141C378.221 84.2982 378.084 84.6237 377.811 84.8906C377.544 85.1576 377.12 85.291 376.541 85.291C376.404 85.291 376.32 85.2617 376.287 85.2031C376.261 85.138 376.235 84.972 376.209 84.7051L376.062 83.3086C376.017 83.276 375.952 83.2402 375.867 83.2012C375.789 83.1556 375.607 83.097 375.32 83.0254C375.04 82.9473 374.744 82.9082 374.432 82.9082C373.442 82.9082 372.641 83.2923 372.029 84.0605C371.424 84.8223 371.121 85.7305 371.121 86.7852C371.121 87.9245 371.417 88.8132 372.01 89.4512C372.602 90.0892 373.458 90.4082 374.578 90.4082C375.099 90.4082 375.665 90.2975 376.277 90.0762C376.896 89.8548 377.4 89.5716 377.791 89.2266C378.162 89.6628 378.348 90.0794 378.348 90.4766C378.348 90.8021 378.156 91.1048 377.771 91.3848C377.387 91.6647 376.893 91.8796 376.287 92.0293C375.688 92.1855 375.063 92.2637 374.412 92.2637C373.657 92.2637 372.944 92.1465 372.273 91.9121C371.609 91.6712 371.02 91.3262 370.506 90.877C369.992 90.4212 369.585 89.8353 369.285 89.1191C368.986 88.3965 368.836 87.5827 368.836 86.6777C368.836 85.8379 368.992 85.0729 369.305 84.3828C369.624 83.6862 370.044 83.1198 370.564 82.6836C371.085 82.2409 371.668 81.9023 372.312 81.668C372.964 81.4271 373.631 81.3066 374.314 81.3066C375.011 81.3066 375.617 81.3783 376.131 81.5215C376.652 81.6582 377.059 81.8503 377.352 82.0977C377.651 82.3451 377.869 82.6217 378.006 82.9277C378.149 83.2272 378.221 83.556 378.221 83.9141ZM389.158 86.2285C389.158 86.528 389.08 86.7591 388.924 86.9219C388.774 87.0781 388.488 87.1562 388.064 87.1562H381.326C381.352 87.7487 381.456 88.2598 381.639 88.6895C381.821 89.1191 382.062 89.4577 382.361 89.7051C382.661 89.946 382.99 90.125 383.348 90.2422C383.706 90.3529 384.096 90.4082 384.52 90.4082C385.112 90.4082 385.717 90.304 386.336 90.0957C386.954 89.8874 387.514 89.5944 388.016 89.2168C388.387 89.653 388.572 90.0827 388.572 90.5059C388.572 90.7858 388.387 91.0625 388.016 91.3359C387.645 91.6029 387.143 91.8242 386.512 92C385.88 92.1758 385.223 92.2637 384.539 92.2637C383.979 92.2637 383.445 92.2083 382.938 92.0977C382.436 91.987 381.941 91.7949 381.453 91.5215C380.971 91.2415 380.555 90.89 380.203 90.4668C379.852 90.0436 379.568 89.5 379.354 88.8359C379.139 88.1719 379.031 87.4199 379.031 86.5801C379.031 85.7598 379.188 85.0078 379.5 84.3242C379.812 83.6406 380.226 83.084 380.74 82.6543C381.255 82.2181 381.827 81.8828 382.459 81.6484C383.097 81.4141 383.751 81.2969 384.422 81.2969C384.917 81.2969 385.392 81.3587 385.848 81.4824C386.303 81.6061 386.733 81.8014 387.137 82.0684C387.54 82.3288 387.892 82.651 388.191 83.0352C388.491 83.4128 388.725 83.875 388.895 84.4219C389.07 84.9688 389.158 85.571 389.158 86.2285ZM387.186 85.6426C387.127 84.7376 386.84 84.0508 386.326 83.582C385.818 83.1068 385.21 82.8691 384.5 82.8691C383.745 82.8691 383.058 83.123 382.439 83.6309C381.827 84.1322 381.476 84.8027 381.385 85.6426H387.186ZM393.65 86.1016V88.6504C393.859 89.1973 394.256 89.6595 394.842 90.0371C395.428 90.4082 396.092 90.5938 396.834 90.5938C397.622 90.5938 398.302 90.2585 398.875 89.5879C399.448 88.9108 399.734 87.9733 399.734 86.7754C399.734 85.5775 399.428 84.6432 398.816 83.9727C398.204 83.3021 397.479 82.9668 396.639 82.9668C396.274 82.9668 395.916 83.0352 395.564 83.1719C395.213 83.3021 394.894 83.4941 394.607 83.748C394.321 84.002 394.09 84.334 393.914 84.7441C393.738 85.1478 393.65 85.6003 393.65 86.1016ZM393.65 78.8359V82.9375C393.969 82.4167 394.425 82.0163 395.018 81.7363C395.617 81.4499 396.225 81.3066 396.844 81.3066C397.501 81.3066 398.136 81.4238 398.748 81.6582C399.36 81.8926 399.91 82.2311 400.398 82.6738C400.893 83.11 401.287 83.6829 401.58 84.3926C401.88 85.1022 402.029 85.8965 402.029 86.7754C402.029 87.6543 401.883 88.4518 401.59 89.168C401.297 89.8776 400.903 90.4538 400.408 90.8965C399.92 91.3392 399.373 91.6777 398.768 91.9121C398.162 92.1465 397.531 92.2637 396.873 92.2637C395.408 92.2637 394.1 91.7168 392.947 90.623L391.971 91.5996C391.619 91.9121 391.281 92.0684 390.955 92.0684C390.695 92.0684 390.48 91.9837 390.311 91.8145C390.141 91.6452 390.057 91.4336 390.057 91.1797C390.057 90.7891 390.239 90.4245 390.604 90.0859L391.434 89.3242V80.1934C391.434 79.8483 391.333 79.6042 391.131 79.4609C390.936 79.3177 390.555 79.2331 389.988 79.207C389.904 79.1875 389.848 79.1452 389.822 79.0801C389.803 79.015 389.793 78.875 389.793 78.6602C389.793 78.3281 389.829 78.0352 389.9 77.7812C389.972 77.5273 390.044 77.3809 390.115 77.3418C390.656 77.4134 391.173 77.4492 391.668 77.4492C391.961 77.4492 392.27 77.4329 392.596 77.4004C392.921 77.3613 393.094 77.3418 393.113 77.3418C393.341 77.3418 393.488 77.4004 393.553 77.5176C393.624 77.6283 393.66 77.8887 393.66 78.2988C393.66 78.3444 393.657 78.429 393.65 78.5527C393.65 78.6699 393.65 78.7643 393.65 78.8359ZM409.93 90.6719C409.454 91.1732 408.852 91.5638 408.123 91.8438C407.4 92.1237 406.665 92.2637 405.916 92.2637C404.985 92.2637 404.217 92.0163 403.611 91.5215C403.006 91.0267 402.703 90.3105 402.703 89.373C402.703 88.3704 403.188 87.6152 404.158 87.1074C404.887 86.7168 406.137 86.3783 407.908 86.0918C408.24 86.0332 408.781 85.9486 409.529 85.8379C409.529 84.7311 409.389 83.9694 409.109 83.5527C408.829 83.1361 408.292 82.9277 407.498 82.9277C406.919 82.9277 406.274 83.0579 405.564 83.3184C404.855 83.5788 404.288 83.9401 403.865 84.4023C403.338 83.9596 403.074 83.5267 403.074 83.1035C403.074 82.7389 403.325 82.4167 403.826 82.1367C404.327 81.8503 404.917 81.6419 405.594 81.5117C406.277 81.375 406.961 81.3066 407.645 81.3066C408.289 81.3066 408.852 81.388 409.334 81.5508C409.822 81.707 410.252 81.9674 410.623 82.332C410.994 82.6966 411.274 83.1979 411.463 83.8359C411.658 84.474 411.756 85.2487 411.756 86.1602V89.2852C411.756 89.5521 411.775 89.7539 411.814 89.8906C411.86 90.0208 411.909 90.1022 411.961 90.1348C412.013 90.1608 412.098 90.1803 412.215 90.1934C412.417 90.2129 412.566 90.2324 412.664 90.252C412.762 90.265 412.876 90.2878 413.006 90.3203C413.136 90.3529 413.227 90.3952 413.279 90.4473C413.338 90.4993 413.367 90.5645 413.367 90.6426C413.367 91.4108 413.26 91.8893 413.045 92.0781C412.732 92.026 412.326 92 411.824 92C411.368 92 410.945 92.0228 410.555 92.0684C410.509 92.0358 410.451 91.9902 410.379 91.9316C410.314 91.873 410.223 91.7233 410.105 91.4824C409.988 91.2415 409.93 90.9714 409.93 90.6719ZM406.365 90.5254C406.958 90.5254 407.599 90.3626 408.289 90.0371C408.979 89.7051 409.396 89.4056 409.539 89.1387V87.4102C407.762 87.7292 406.561 88.0156 405.936 88.2695C405.317 88.5234 405.008 88.8815 405.008 89.3438C405.008 90.1315 405.46 90.5254 406.365 90.5254ZM417.635 82.4297V83.0645C417.928 82.5957 418.364 82.1855 418.943 81.834C419.523 81.4824 420.076 81.3066 420.604 81.3066C420.949 81.3066 421.277 81.3652 421.59 81.4824C421.902 81.5931 422.173 81.7949 422.4 82.0879C422.635 82.3809 422.752 82.7389 422.752 83.1621C422.752 84.321 422.137 84.9004 420.906 84.9004C420.88 84.9004 420.854 84.8971 420.828 84.8906C420.802 84.8841 420.779 84.8743 420.76 84.8613C420.747 84.8483 420.734 84.8353 420.721 84.8223C420.708 84.8092 420.695 84.7897 420.682 84.7637C420.675 84.7376 420.669 84.7148 420.662 84.6953C420.656 84.6758 420.649 84.6465 420.643 84.6074C420.636 84.5618 420.63 84.526 420.623 84.5C420.623 84.474 420.62 84.4382 420.613 84.3926C420.613 84.3405 420.61 84.2982 420.604 84.2656L420.486 83.25C420.311 83.1654 420.118 83.123 419.91 83.123C419.533 83.123 419.152 83.263 418.768 83.543C418.39 83.8164 418.11 84.1354 417.928 84.5V89.4414C417.928 89.5391 417.931 89.6172 417.938 89.6758C417.951 89.7279 417.973 89.7897 418.006 89.8613C418.045 89.9329 418.11 89.9883 418.201 90.0273C418.292 90.0599 418.41 90.0762 418.553 90.0762C418.8 90.0762 419.012 90.1152 419.188 90.1934C419.363 90.2715 419.451 90.3887 419.451 90.5449C419.451 90.8574 419.399 91.1667 419.295 91.4727C419.191 91.7786 419.038 91.9805 418.836 92.0781C418.38 92.026 417.713 92 416.834 92C415.955 92 415.281 92.026 414.812 92.0781C414.598 91.9805 414.441 91.7819 414.344 91.4824C414.246 91.1764 414.197 90.8639 414.197 90.5449C414.197 90.3887 414.285 90.2715 414.461 90.1934C414.637 90.1152 414.848 90.0762 415.096 90.0762C415.35 90.0762 415.516 90.0241 415.594 89.9199C415.672 89.8092 415.711 89.6562 415.711 89.4609V84.3242C415.711 83.9792 415.61 83.735 415.408 83.5918C415.213 83.4486 414.832 83.3639 414.266 83.3379C414.181 83.3184 414.126 83.276 414.1 83.2109C414.08 83.1458 414.07 83.0059 414.07 82.791C414.07 82.459 414.106 82.166 414.178 81.9121C414.249 81.6582 414.321 81.5117 414.393 81.4727C414.855 81.5443 415.307 81.5801 415.75 81.5801C416.023 81.5801 416.31 81.5638 416.609 81.5312C416.915 81.4922 417.078 81.4727 417.098 81.4727C417.326 81.4727 417.472 81.5312 417.537 81.6484C417.602 81.7591 417.635 82.0195 417.635 82.4297Z" fill="#9A86A9"/>
<rect x="332.5" y="156.5" width="149" height="31" rx="3.5" fill="#E9E8C9"/>
<rect x="332.5" y="156.5" width="149" height="31" rx="3.5" stroke="#DFDFDF"/>
<rect width="45" height="2" transform="translate(429.5 186) rotate(180)" fill="#9A86A9"/>
</svg>
