<svg width="400" height="332" viewBox="0 0 400 332" fill="none" xmlns="http://www.w3.org/2000/svg">
<path d="M26.6611 81.4062H8.33301V391.667H26.6611V81.4062Z" fill="#B13FE3"/>
<path d="M44.8696 63.0781H26.6613V81.4062H44.8696V63.0781Z" fill="#B13FE3"/>
<path d="M63.1978 44.8698H44.8696V63.0781H63.1978V44.8698Z" fill="#B13FE3"/>
<path d="M81.4062 26.5417H63.1979V44.8698H81.4062V26.5417Z" fill="#B13FE3"/>
<path d="M355.25 8.33334V81.4063H336.922V99.6146H318.713V263.849H336.922V282.177H355.25V300.385H373.458V318.594H136.151V391.667H117.942V300.385H99.6143V282.177H81.4059V263.849H63.1976V99.6146H81.4059V81.4063H99.6143V26.5417H81.4059V8.33334H355.25ZM263.968 26.5417H117.942V63.0781H263.968V26.5417ZM300.505 26.5417H282.177V63.0781H300.505V26.5417ZM336.922 63.0781V26.5417H318.713V63.0781H336.922ZM282.177 282.177H300.505V300.385H318.713V282.177H300.505V263.849H282.177V282.177ZM227.432 282.177H245.64V300.385H263.968V282.177H245.64V263.849H227.432V282.177ZM136.151 300.385H190.895V282.177H136.151V300.385ZM117.942 245.641H263.968V136.151H117.942V245.641ZM99.6143 117.823H300.505V99.6146H99.6143V117.823Z" fill="#B13FE3"/>
<path d="M154.479 190.896H136.151V209.104H154.479V190.896Z" fill="#B13FE3"/>
<path d="M172.688 154.359H154.479V172.568H172.688V154.359Z" fill="#B13FE3"/>
<path d="M227.432 209.104H154.479V227.432H227.432V209.104Z" fill="#B13FE3"/>
<path d="M227.432 154.359H209.224V172.568H227.432V154.359Z" fill="#B13FE3"/>
<path d="M245.641 190.896H227.432V209.104H245.641V190.896Z" fill="#B13FE3"/>
<path d="M391.667 318.594H373.458V391.667H391.667V318.594Z" fill="#B13FE3"/>
</svg>
