<svg width="36" height="36" viewBox="0 0 36 36" fill="none" xmlns="http://www.w3.org/2000/svg">
<g clip-path="url(#clip0_273_4135)">
<path d="M31.9619 22.1077H35.2502V25.3959H31.9619V22.1077Z" fill="#FFFEED"/>
<path d="M31.9619 31.9725H35.2502V35.25H31.9619V31.9725Z" fill="#FFFEED"/>
<path d="M27.0347 27.0454H35.25V30.3229H27.0347V27.0454Z" fill="#FFFEED"/>
<path d="M31.9619 10.6149H33.6114V12.2536H31.9619V10.6149Z" fill="#FFFEED"/>
<path d="M30.3229 17.1806H31.9616V12.2535H28.6733V13.8923H30.3229V17.1806Z" fill="#FFFEED"/>
<path d="M28.6733 17.1807H30.3229V18.8302H28.6733V17.1807Z" fill="#FFFEED"/>
<path d="M22.1074 31.9725H30.3227V35.25H22.1074V31.9725Z" fill="#FFFEED"/>
<path d="M27.0347 13.8923H28.6734V15.5419H27.0347V13.8923Z" fill="#FFFEED"/>
<path d="M28.6735 5.68786H30.323V4.03833H25.396V5.68786H27.0347V10.6149H28.6735V5.68786Z" fill="#FFFEED"/>
<path d="M25.396 18.8302H28.6735V20.469H25.396V18.8302Z" fill="#FFFEED"/>
<path d="M25.396 10.6149H27.0347V13.8924H25.396V10.6149Z" fill="#FFFEED"/>
<path d="M23.7466 5.68787H25.3961V7.32662H23.7466V5.68787Z" fill="#FFFEED"/>
<path d="M15.5312 27.0454H25.3961V30.3229H15.5312V27.0454Z" fill="#FFFEED"/>
<path d="M20.4688 22.1077H30.3228V25.3959H20.4688V22.1077Z" fill="#FFFEED"/>
<path d="M22.1074 10.6149H23.7462V12.2536H22.1074V10.6149Z" fill="#FFFEED"/>
<path d="M22.1074 7.32654H23.7462V8.96529H22.1074V7.32654Z" fill="#FFFEED"/>
<path d="M20.4688 5.68787H22.1075V7.32662H20.4688V5.68787Z" fill="#FFFEED"/>
<path d="M18.8192 8.96533V10.6149H17.1804V12.2536H15.5309V13.8924H17.1804V15.5419H15.5309V13.8924H12.2534V15.5419H13.8922V18.8302H15.5309V20.4689H22.1075V18.8302H23.7462V13.8924H22.1075V12.2536H20.4687V13.8924H18.8192V12.2536H20.4687V8.96533H18.8192ZM20.4687 15.5419H22.1075V17.1806H20.4687V15.5419ZM18.8192 18.8302H17.1804V17.1806H18.8192V18.8302Z" fill="#FFFEED"/>
<path d="M22.1077 2.39953V0.75H17.1807V2.39953H18.8194V5.68781H20.4689V2.39953H22.1077Z" fill="#FFFEED"/>
<path d="M10.604 31.9725H20.4688V35.25H10.604V31.9725Z" fill="#FFFEED"/>
<path d="M8.96533 22.1077H18.8194V25.3959H8.96533V22.1077Z" fill="#FFFEED"/>
<path d="M15.5312 2.39954H17.1808V7.32657H15.5312V2.39954Z" fill="#FFFEED"/>
<path d="M13.8926 7.32654H15.5313V8.96529H13.8926V7.32654Z" fill="#FFFEED"/>
<path d="M12.2534 5.68787H13.8922V7.32662H12.2534V5.68787Z" fill="#FFFEED"/>
<path d="M5.67725 27.0454H13.8926V30.3229H5.67725V27.0454Z" fill="#FFFEED"/>
<path d="M10.604 7.32654H12.2535V12.2536H10.604V7.32654Z" fill="#FFFEED"/>
<path d="M10.604 4.03833H12.2535V5.68786H10.604V4.03833Z" fill="#FFFEED"/>
<path d="M8.96533 18.8302H12.2536V20.469H8.96533V18.8302Z" fill="#FFFEED"/>
<path d="M8.96533 12.2535H10.6041V13.8923H8.96533V12.2535Z" fill="#FFFEED"/>
<path d="M8.96533 5.68787H10.6041V7.32662H8.96533V5.68787Z" fill="#FFFEED"/>
<path d="M7.32666 17.1807H8.96541V18.8302H7.32666V17.1807Z" fill="#FFFEED"/>
<path d="M0.75 31.9725H8.96531V35.25H0.75V31.9725Z" fill="#FFFEED"/>
<path d="M4.03809 10.6149V12.2536H5.67684V17.1806H7.32637V12.2536H8.96512V10.6149H4.03809Z" fill="#FFFEED"/>
<path d="M0.75 27.0454H4.03828V30.3229H0.75V27.0454Z" fill="#FFFEED"/>
<path d="M0.75 22.1077H7.32656V25.3959H0.75V22.1077Z" fill="#FFFEED"/>
<path d="M2.38867 8.96533H4.0382V10.6149H2.38867V8.96533Z" fill="#FFFEED"/>
</g>
<defs>
<clipPath id="clip0_273_4135">
<rect width="36" height="36" fill="white"/>
</clipPath>
</defs>
</svg>
